<svg xmlns="http://www.w3.org/2000/svg" viewBox="0 0 1024 1024">
  <rect width="1024" height="1024" fill="#B5765D"/>
  <path d="m277 191 426-17 77 84-14 565-92 42-412-30-35-107 25-435 25-102Z" fill="#ECDCC5"/>
  <path d="m703 174 77 84-84 5 7-89Z" fill="#9B5E4B"/>
  <path d="M356 348c78-23 180-24 285-8M371 429c96-17 177-13 259 3M367 537c77-10 150-8 220 15M357 640c103 8 178 10 267-3" fill="none" stroke="#53483D" stroke-width="43" stroke-linecap="round"/>
  <path d="m518 441-40 173 118-127" fill="none" stroke="#B5765D" stroke-width="37" stroke-linecap="round" stroke-linejoin="round"/>
  <rect x="608" y="683" width="87" height="87" fill="#B94B36"/>
</svg>
